<svg xmlns="http://www.w3.org/2000/svg" width="141.994" height="32.116" viewBox="0 0 141.994 32.116">
  <g id="logo-kreatinc-1" transform="translate(1228.135 -149.975)">
    <path id="Path_2" data-name="Path 2" d="M512.727,72.423V72.4a20.815,20.815,0,0,0-.69-5.335c-.081-.309-.17-.621-.266-.943-.024-.081-.049-.162-.073-.242a12.292,12.292,0,0,0-4.449-6.607c-.193-.138-.389-.268-.589-.389l-.023-.015a11.022,11.022,0,0,0-5.8-1.507c-.049,0-.1,0-.145,0a15.288,15.288,0,0,0-2.045.168l-.036.006c-7.018,1.047-15.019,6.581-18.685,9.3-4.062,3.011-5.058,3.809-5.058,4.72a1.918,1.918,0,0,0,1.843,1.953c.764,0,2.253-.049,2.253,1.543a2.953,2.953,0,0,1-.408,1.585c0,.183.117.24.323.24a2.071,2.071,0,0,0,1.907-1.986c.017-1-.587-.747-.587-1.932,0-.909,1.106-1.4,1.639-1.4.815,0,2.181.019,2.181,3.222,0,.157,0,.315.007.472,0,.1.005.2.009.3s.009.2.015.3c.017.27.04.538.07.806q.09.841.259,1.662a17.788,17.788,0,0,0,.494,1.909c.026.079.051.159.077.236.032.1.066.192.1.289.013.04.026.079.041.117A16.018,16.018,0,0,0,488.047,86c.194.221.392.434.6.638.017.017.036.034.051.051a11.2,11.2,0,0,0,1.656,1.349c.049.032.1.064.145.092a8.963,8.963,0,0,0,1.409.74l.023.009a7.809,7.809,0,0,0,2.987.6c.043,0,.087,0,.128,0a.02.02,0,0,0,.015,0,18.377,18.377,0,0,0,8.373-1.981.111.111,0,0,1,.019-.009,16.193,16.193,0,0,0,6.052-5.25.039.039,0,0,1,.005-.009l0-.006-.034.006c-10.516,1.755-19.26-1.409-18.864-10.22,0-.653-.611-1.07-.611-1.143s.028-.117.219-.345a12.927,12.927,0,0,0,2.064-3.336.188.188,0,0,0-.219-.253,4.5,4.5,0,0,1-1.006.145.9.9,0,0,1-.958-.845c0-1.751,7.247-4.839,11.78-4.852,9.324-.028,10.5,8.273,10.822,12.225,0,.009,0,.021,0,.03,0-.025,0-.049,0-.074.005-.234.036-.436.019-1.136M485.462,67.5a1.44,1.44,0,0,1-.253.23,1.335,1.335,0,0,1-1.589-.041.548.548,0,0,1-.189-.242,1.009,1.009,0,0,1-.053-.632,1.358,1.358,0,0,1,1.609-1.064,1,1,0,0,1,.775.621,1.289,1.289,0,0,1-.3,1.128" transform="translate(-1703 92.613)" fill="#ee4137"/>
    <path id="Path_3" data-name="Path 3" d="M649.906,89.3l-3.379,15.874h-4.4L645.5,89.3Zm6.607,1.6q-1.047.818-3.053,2.54l-1.112.981-.436.37,4.448,6.171-1.09,5.124h-.218l-6.432-9.049,3.445-2.965a22.939,22.939,0,0,0,2.726-2.66,12.091,12.091,0,0,0,1.4-2.115h2.66l-.022.044a21,21,0,0,0-2.311,1.558" transform="translate(-1822.217 69.845)" fill="#05172d"/>
    <path id="Path_4" data-name="Path 4" d="M704.775,102.169l-1.635,3.052a1.75,1.75,0,0,0-1.09-.349,1.569,1.569,0,0,0-1.21.578,8.3,8.3,0,0,0-1.166,2.573,63.093,63.093,0,0,0-1.527,6.138h-4.1l2.42-11.36,4.187-.894h.087l-.916,4.339h.109a9.61,9.61,0,0,1,1.756-3.195,2.9,2.9,0,0,1,2.169-1.014,3.825,3.825,0,0,1,.916.131" transform="translate(-1859.228 60.862)" fill="#05172d"/>
    <path id="Path_5" data-name="Path 5" d="M735.411,112.752a6.393,6.393,0,0,0,1.9-1.362l.218.152q-2.638,3.205-5.865,3.205a4.5,4.5,0,0,1-3.391-1.319,5.034,5.034,0,0,1-1.276-3.652,7.512,7.512,0,0,1,.938-3.685,7.146,7.146,0,0,1,6.389-3.728,5.481,5.481,0,0,1,2.943.7,2.125,2.125,0,0,1,1.112,1.875,3.173,3.173,0,0,1-1.831,2.616,15.946,15.946,0,0,1-5.364,1.788v.48a4.239,4.239,0,0,0,.61,2.573,2.128,2.128,0,0,0,1.788.785,4.517,4.517,0,0,0,1.832-.425m-2.584-9.081a7.317,7.317,0,0,0-1.112,2.409,14.969,14.969,0,0,0-.512,2.911,6.387,6.387,0,0,0,3.14-1.908,4.447,4.447,0,0,0,1.134-2.977,1.711,1.711,0,0,0-.261-1.09.9.9,0,0,0-.72-.305,2.047,2.047,0,0,0-1.668.96" transform="translate(-1882.712 60.537)" fill="#05172d"/>
    <path id="Path_6" data-name="Path 6" d="M779.468,112.831a.649.649,0,0,0,.186.512,1.019,1.019,0,0,0,.665.164,2.78,2.78,0,0,0,.436-.044l-.021.131a6.072,6.072,0,0,1-1.265.545,5.755,5.755,0,0,1-1.831.283,2.57,2.57,0,0,1-1.668-.447,1.647,1.647,0,0,1-.534-1.341,4.405,4.405,0,0,1,.131-1.025l.305-1.4H775.7a8.537,8.537,0,0,1-2.082,3.26,3.833,3.833,0,0,1-2.54.948,2.714,2.714,0,0,1-2.421-1.09,5.118,5.118,0,0,1-.741-2.922,9.176,9.176,0,0,1,.959-4.164,7.843,7.843,0,0,1,2.66-3.064,6.681,6.681,0,0,1,3.816-1.145,6.275,6.275,0,0,1,2.061.327,5.1,5.1,0,0,1,1.646.915l2.595-1.373h.087l-2.115,9.943a5.058,5.058,0,0,0-.153.981m-4.492-2.006a24.631,24.631,0,0,0,2.093-6.258,2.657,2.657,0,0,0-.381-1.526,1.283,1.283,0,0,0-1.145-.632,2.283,2.283,0,0,0-1.865,1.254,10.108,10.108,0,0,0-1.276,3.085,14.23,14.23,0,0,0-.458,3.445q0,2.355,1.112,2.354.894,0,1.919-1.722" transform="translate(-1911.877 60.862)" fill="#05172d"/>
    <path id="Path_7" data-name="Path 7" d="M822.842,101.825a3.607,3.607,0,0,0-.109.741.646.646,0,0,0,.719.742q.806,0,2.289-1.483l.24.218q-2.356,2.748-4.492,2.748a3,3,0,0,1-2.148-.632,2.218,2.218,0,0,1-.643-1.657,3.948,3.948,0,0,1,.087-.894l1.788-8.46h-1.221l.066-.37,1.265-.109,4.928-4.274h.087l-.916,4.274H827.6l-.371.479h-2.551Z" transform="translate(-1948.076 70.494)" fill="#05172d"/>
    <path id="Path_8" data-name="Path 8" d="M847.385,88.3l4.187-.894h.087l-2.595,12.254h-4.1Zm.5-4.47,2.878-2.268,2.006,2.617-2.878,2.267Z" transform="translate(-1966.798 75.365)" fill="#05172d"/>
    <path id="Path_9" data-name="Path 9" d="M879.635,102.725a2.706,2.706,0,0,1,.741,2.082,7.142,7.142,0,0,1-.174,1.439l-1.679,7.915h-4.1l1.744-8.155a5.828,5.828,0,0,0,.153-1.134,1.175,1.175,0,0,0-.186-.709.722.722,0,0,0-.621-.251,1.677,1.677,0,0,0-1.156.654,9.747,9.747,0,0,0-1.439,2.922,52.7,52.7,0,0,0-1.766,6.672h-4.1l2.421-11.36,4.187-.894h.087l-.916,4.339h.174a8.388,8.388,0,0,1,1.984-3.282,3.709,3.709,0,0,1,2.507-.926,3.03,3.03,0,0,1,2.137.687" transform="translate(-1982.543 60.862)" fill="#05172d"/>
    <path id="Path_10" data-name="Path 10" d="M918.874,114.158a4.274,4.274,0,0,1-1.7-1.69,5.127,5.127,0,0,1-.622-2.562,7.594,7.594,0,0,1,.97-3.751,7.515,7.515,0,0,1,2.606-2.769,6.569,6.569,0,0,1,3.554-1.025,4.805,4.805,0,0,1,2.595.643,5.152,5.152,0,0,1,1.635,1.6l-1.374,1.047a9.6,9.6,0,0,0-.959-2.213,1.528,1.528,0,0,0-1.352-.731,2.175,2.175,0,0,0-1.8,1.232,9.807,9.807,0,0,0-1.189,3.009,14.541,14.541,0,0,0-.414,3.282,3.381,3.381,0,0,0,.611,2.235,2.15,2.15,0,0,0,1.723.708,3.918,3.918,0,0,0,1.581-.338,5.033,5.033,0,0,0,1.581-1.188l.24.175a9.79,9.79,0,0,1-2.486,2.169,5.356,5.356,0,0,1-2.748.752,5.04,5.04,0,0,1-2.453-.589" transform="translate(-2017.824 60.538)" fill="#05172d"/>
    <path id="Path_11" data-name="Path 11" d="M952.231,131.655l2.878-2.268L957.115,132l-2.878,2.267Z" transform="translate(-2043.255 41.276)" fill="#05172d"/>
  </g>
</svg>
