<svg xmlns="http://www.w3.org/2000/svg" xmlns:xlink="http://www.w3.org/1999/xlink" width="375" height="338" viewBox="0 0 375 338">
  <defs>
    <clipPath id="clip-path">
      <rect id="Rectangle_102" data-name="Rectangle 102" width="375" height="338" transform="translate(0 2278)" fill="#fff"/>
    </clipPath>
  </defs>
  <g id="quotation-mark-bg" transform="translate(0 -2278)" clip-path="url(#clip-path)">
    <g id="Group_137" data-name="Group 137" transform="translate(538.453 1997.021)" opacity="0.07">
      <path id="Path_72" data-name="Path 72" d="M-93.235,613.526c-1.38.084-2.76.242-4.141.242q-78.635.018-157.272.011H-259.3c-.1-1.269-.232-2.121-.232-2.971.042-56.323-.958-112.672.439-168.961,1.411-56.885,27.465-101.422,74.156-133.486,26.578-18.252,56.427-27.169,88.7-27.7,1-.017,2,.115,3,.177v55.448c-5.411.311-10.885.2-16.223,1a111,111,0,0,0-92.6,88.773c-1.343,6.832-1.64,13.869-2.456,21.124H-93.235Z" transform="translate(-70.218 -0.003)" fill="#adadad"/>
      <path id="Path_73" data-name="Path 73" d="M-496.17,447.276h110.653V613.513H-551.6v-4.042c0-53.67-.794-107.355.2-161.007,1.332-72.24,35.776-123.777,100.883-154.439,19.5-9.182,40.5-13.14,62.113-13.379.858-.009,1.715,0,2.845,0V335.9c-37.163,1.25-67.193,16.246-89.344,46.093C-489.111,401.133-495.84,422.9-496.17,447.276Z" fill="#adadad"/>
    </g>
  </g>
</svg>
