<svg xmlns="http://www.w3.org/2000/svg" width="107.819" height="70.184" viewBox="0 0 107.819 70.184">
  <path id="_02" data-name="02" d="M31.74,1.6A27.6,27.6,0,0,1,17.081-2.334,26.887,26.887,0,0,1,6.955-14.045C4.511-19.18,3.272-25.474,3.272-32.752c0-7.516,1.159-14.036,3.444-19.379a30.318,30.318,0,0,1,4.2-7.109,24.344,24.344,0,0,1,5.695-5.166,24.99,24.99,0,0,1,7.029-3.133,31.067,31.067,0,0,1,8.194-1.041,28.078,28.078,0,0,1,14.749,3.936A24.622,24.622,0,0,1,52.4-59.738a29.843,29.843,0,0,1,4.4,6.807C59.245-47.8,60.484-41.5,60.484-34.224c0,7.517-1.175,14.022-3.492,19.336A30.587,30.587,0,0,1,52.747-7.8a25,25,0,0,1-5.738,5.186A25.16,25.16,0,0,1,39.946.551,30.875,30.875,0,0,1,31.74,1.6Zm.092-69.184a26.462,26.462,0,0,0-14.678,4.013A25.756,25.756,0,0,0,7.636-51.737C5.4-46.519,4.272-40.132,4.272-32.752c0,7.129,1.206,13.278,3.585,18.277A25.906,25.906,0,0,0,17.6-3.186,26.615,26.615,0,0,0,31.74.6,26.464,26.464,0,0,0,46.463-3.455a26.241,26.241,0,0,0,9.613-11.833c2.262-5.187,3.408-11.558,3.408-18.936,0-7.129-1.206-13.278-3.585-18.277a25.7,25.7,0,0,0-9.835-11.287A27.093,27.093,0,0,0,31.832-67.58ZM107.558.5H63.532V-.57l5.477-5.665a164.517,164.517,0,0,0,18.574-22.24c4.37-6.54,6.586-12.993,6.586-19.18,0-4.439-1.218-7.878-3.621-10.222a12.831,12.831,0,0,0-9.311-3.538,16.159,16.159,0,0,0-7.989,2.19,21.665,21.665,0,0,0-7.055,6.793l-.239.348L63.9-53.034l.244-.466a32.5,32.5,0,0,1,8.967-10.374,21.105,21.105,0,0,1,6.878-3.534A29.264,29.264,0,0,1,88.5-68.58a26.418,26.418,0,0,1,10.642,2.112,17.815,17.815,0,0,1,7.758,6.388A18.017,18.017,0,0,1,109.8-49.772a22.993,22.993,0,0,1-3.9,12.553A60.211,60.211,0,0,1,95-25.017C90.567-21.11,84.274-16.053,76.282-9.976h4.586c5.85,0,11.118-.139,15.656-.413s9.179-.752,13.8-1.422l.764-.111Zm-42.7-1H106.8l2.906-10.212c-4.4.617-8.812,1.061-13.124,1.322-4.558.275-9.846.415-15.716.415H73.307l1.187-.9c8.537-6.463,15.213-11.81,19.843-15.892a59.227,59.227,0,0,0,10.72-11.993A22.01,22.01,0,0,0,108.8-49.772a17.04,17.04,0,0,0-2.72-9.747,16.83,16.83,0,0,0-7.33-6.032A25.425,25.425,0,0,0,88.5-67.58c-5.99,0-10.963,1.512-14.78,4.494A31.842,31.842,0,0,0,65.276-53.5l.333.154A22.373,22.373,0,0,1,72.757-60.1a17.147,17.147,0,0,1,8.479-2.318,13.8,13.8,0,0,1,10.009,3.822c2.6,2.54,3.923,6.22,3.923,10.938a30.12,30.12,0,0,1-1.695,9.765,43.535,43.535,0,0,1-5.06,9.971A165.487,165.487,0,0,1,69.727-5.54ZM32.108.316a9.219,9.219,0,0,1-6.289-2.392A17.378,17.378,0,0,1,21.428-9.07a50.772,50.772,0,0,1-2.58-10.814,104.326,104.326,0,0,1-.856-14.064A104.073,104.073,0,0,1,18.8-47.607a50.728,50.728,0,0,1,2.441-10.524c2.216-6.079,5.717-9.161,10.406-9.161A9.219,9.219,0,0,1,37.937-64.9a17.379,17.379,0,0,1,4.391,6.995,50.767,50.767,0,0,1,2.58,10.791,103.416,103.416,0,0,1,.856,13.995,105.012,105.012,0,0,1-.809,13.728A50.735,50.735,0,0,1,42.514-8.845C40.3-2.766,36.8.316,32.108.316Zm-.46-66.608c-4.284,0-7.38,2.781-9.466,8.5-2.117,5.805-3.19,13.827-3.19,23.841,0,10.318,1.135,18.569,3.372,24.526,2.209,5.88,5.4,8.738,9.744,8.738,4.284,0,7.38-2.781,9.466-8.5,2.117-5.805,3.19-13.858,3.19-23.933,0-10.257-1.135-18.477-3.372-24.434C39.183-63.434,36-66.292,31.648-66.292Z" transform="translate(-3.272 68.58)" fill="#ee4137" opacity="0.25"/>
</svg>
