<svg xmlns="http://www.w3.org/2000/svg" width="106.34" height="70.184" viewBox="0 0 106.34 70.184">
  <path id="_03" data-name="03" d="M82.432,1.6A40.238,40.238,0,0,1,74,.673a65.2,65.2,0,0,1-9.6-2.966L64-2.45l1.992-8.522.643.82a35.352,35.352,0,0,0,6.935,6.985,13.4,13.4,0,0,0,7.944,2.3,14.7,14.7,0,0,0,7.21-1.823A13.561,13.561,0,0,0,93.958-7.93a16.274,16.274,0,0,0,1.958-8.17A16.226,16.226,0,0,0,91.81-27.177,18.186,18.186,0,0,0,80.967-33l-3.505-.6-.643-1.768,2.971-.99A22.261,22.261,0,0,0,88.922-42.2,13.092,13.092,0,0,0,92.7-51.428a9.341,9.341,0,0,0-3.138-7.441A12.08,12.08,0,0,0,81.42-61.6c-5.459,0-10.282,2.508-14.333,7.453l-.245.3-2.09-.965.343-.49a35.792,35.792,0,0,1,9.749-9.423A25.111,25.111,0,0,1,88.872-68.58a23.9,23.9,0,0,1,9.3,1.741,15.64,15.64,0,0,1,6.553,4.9,11.943,11.943,0,0,1,2.4,7.386,13.95,13.95,0,0,1-4.375,9.918,22.217,22.217,0,0,1-8.795,5.551,22.07,22.07,0,0,1,6.963,3.019,19.91,19.91,0,0,1,6.321,6.6,17.572,17.572,0,0,1,2.369,9.04A19.581,19.581,0,0,1,106.166-9.1a23.273,23.273,0,0,1-9.632,7.852A33.412,33.412,0,0,1,82.432,1.6ZM65.17-3.071A63.291,63.291,0,0,0,74.211-.3,39.237,39.237,0,0,0,82.432.6a32.424,32.424,0,0,0,13.682-2.76,22.289,22.289,0,0,0,9.228-7.512,18.6,18.6,0,0,0,3.27-10.756,16.586,16.586,0,0,0-2.231-8.532,18.918,18.918,0,0,0-6.007-6.275A21.031,21.031,0,0,0,92.2-38.423l-.419-.068v-.994l.372-.1a21.3,21.3,0,0,0,9.891-5.754,12.986,12.986,0,0,0,4.089-9.218,10.965,10.965,0,0,0-2.2-6.782,14.657,14.657,0,0,0-6.143-4.579,22.905,22.905,0,0,0-8.914-1.663,24.132,24.132,0,0,0-13.48,3.69,34.836,34.836,0,0,0-9.131,8.673l.3.138a22.335,22.335,0,0,1,6.717-5.556A17.5,17.5,0,0,1,81.42-62.6a13.049,13.049,0,0,1,8.79,2.973,10.3,10.3,0,0,1,3.486,8.2,14.062,14.062,0,0,1-4.046,9.911,23.254,23.254,0,0,1-9.541,6.11l-2,.666.093.256,2.934.5a19.162,19.162,0,0,1,11.422,6.142A17.2,17.2,0,0,1,96.916-16.1a17.256,17.256,0,0,1-2.09,8.666,14.547,14.547,0,0,1-5.62,5.617A15.683,15.683,0,0,1,81.512.132a14.375,14.375,0,0,1-8.524-2.485,34.666,34.666,0,0,1-6.5-6.374ZM31.74,1.6A27.6,27.6,0,0,1,17.081-2.334,26.887,26.887,0,0,1,6.955-14.045C4.511-19.18,3.272-25.474,3.272-32.752c0-7.516,1.159-14.036,3.444-19.379a30.318,30.318,0,0,1,4.2-7.109,24.344,24.344,0,0,1,5.695-5.166,24.99,24.99,0,0,1,7.029-3.133,31.067,31.067,0,0,1,8.194-1.041,28.078,28.078,0,0,1,14.749,3.936A24.622,24.622,0,0,1,52.4-59.738a29.843,29.843,0,0,1,4.4,6.807C59.245-47.8,60.484-41.5,60.484-34.224c0,7.517-1.175,14.022-3.492,19.336A30.587,30.587,0,0,1,52.747-7.8a25,25,0,0,1-5.738,5.186A25.16,25.16,0,0,1,39.946.551,30.875,30.875,0,0,1,31.74,1.6Zm.092-69.184a26.462,26.462,0,0,0-14.678,4.013A25.756,25.756,0,0,0,7.636-51.737C5.4-46.519,4.272-40.132,4.272-32.752c0,7.129,1.206,13.278,3.585,18.277A25.906,25.906,0,0,0,17.6-3.186,26.615,26.615,0,0,0,31.74.6,26.464,26.464,0,0,0,46.463-3.455a26.241,26.241,0,0,0,9.613-11.833c2.262-5.187,3.408-11.558,3.408-18.936,0-7.129-1.206-13.278-3.585-18.277a25.7,25.7,0,0,0-9.835-11.287A27.093,27.093,0,0,0,31.832-67.58Zm.276,67.9a9.219,9.219,0,0,1-6.289-2.392A17.379,17.379,0,0,1,21.428-9.07a50.772,50.772,0,0,1-2.58-10.814,104.326,104.326,0,0,1-.856-14.064A104.073,104.073,0,0,1,18.8-47.607a50.728,50.728,0,0,1,2.441-10.524c2.216-6.079,5.717-9.161,10.406-9.161A9.219,9.219,0,0,1,37.937-64.9a17.379,17.379,0,0,1,4.391,6.995,50.767,50.767,0,0,1,2.58,10.791,103.416,103.416,0,0,1,.856,13.995,105.012,105.012,0,0,1-.809,13.728A50.735,50.735,0,0,1,42.514-8.845C40.3-2.766,36.8.316,32.108.316Zm-.46-66.608c-4.284,0-7.38,2.781-9.466,8.5-2.117,5.805-3.19,13.827-3.19,23.841,0,10.318,1.135,18.569,3.372,24.526,2.209,5.88,5.4,8.738,9.744,8.738,4.284,0,7.38-2.781,9.466-8.5,2.117-5.805,3.19-13.858,3.19-23.933,0-10.257-1.135-18.477-3.372-24.434C39.183-63.434,36-66.292,31.648-66.292Z" transform="translate(-3.272 68.58)" fill="#ee4137" opacity="0.25"/>
</svg>
