<svg xmlns="http://www.w3.org/2000/svg" width="111.096" height="70.184" viewBox="0 0 111.096 70.184">
  <path id="_04" data-name="04" d="M31.74,1.6A27.6,27.6,0,0,1,17.081-2.334,26.887,26.887,0,0,1,6.955-14.045C4.511-19.18,3.272-25.474,3.272-32.752c0-7.516,1.159-14.036,3.444-19.379a30.319,30.319,0,0,1,4.2-7.109,24.344,24.344,0,0,1,5.695-5.166,24.99,24.99,0,0,1,7.029-3.133,31.067,31.067,0,0,1,8.194-1.041,28.078,28.078,0,0,1,14.749,3.936A24.622,24.622,0,0,1,52.4-59.738a29.843,29.843,0,0,1,4.4,6.807C59.245-47.8,60.484-41.5,60.484-34.224c0,7.517-1.175,14.022-3.492,19.336A30.587,30.587,0,0,1,52.747-7.8a25,25,0,0,1-5.738,5.186A25.159,25.159,0,0,1,39.946.551,30.874,30.874,0,0,1,31.74,1.6Zm.092-69.184a26.463,26.463,0,0,0-14.678,4.013A25.756,25.756,0,0,0,7.636-51.737C5.4-46.519,4.272-40.132,4.272-32.752c0,7.129,1.206,13.278,3.585,18.277A25.906,25.906,0,0,0,17.6-3.186,26.615,26.615,0,0,0,31.74.6,26.464,26.464,0,0,0,46.463-3.455a26.241,26.241,0,0,0,9.613-11.833c2.262-5.187,3.408-11.558,3.408-18.936,0-7.129-1.206-13.278-3.585-18.277a25.7,25.7,0,0,0-9.835-11.287A27.093,27.093,0,0,0,31.832-67.58ZM105.2.5H91.224V-15.876H65.533l-2.444-6.11L100.78-67.66H105.2v42.78h9.173l-2.484,9H105.2ZM92.224-.5H104.2V-16.876h6.927l1.932-7H104.2V-66.66h-2.944L64.238-21.806l1.972,4.93H92.224ZM32.108.316a9.219,9.219,0,0,1-6.289-2.392A17.379,17.379,0,0,1,21.428-9.07a50.772,50.772,0,0,1-2.58-10.814,104.326,104.326,0,0,1-.856-14.064A104.074,104.074,0,0,1,18.8-47.607a50.729,50.729,0,0,1,2.441-10.524c2.216-6.079,5.717-9.161,10.406-9.161A9.219,9.219,0,0,1,37.937-64.9a17.379,17.379,0,0,1,4.391,6.995,50.767,50.767,0,0,1,2.58,10.791,103.416,103.416,0,0,1,.856,13.995,105.014,105.014,0,0,1-.809,13.728A50.735,50.735,0,0,1,42.514-8.845C40.3-2.766,36.8.316,32.108.316Zm-.46-66.608c-4.284,0-7.38,2.781-9.466,8.5-2.117,5.805-3.19,13.827-3.19,23.841,0,10.318,1.135,18.57,3.372,24.526,2.209,5.88,5.4,8.738,9.744,8.738,4.284,0,7.38-2.781,9.466-8.5,2.117-5.805,3.19-13.858,3.19-23.933,0-10.257-1.135-18.477-3.372-24.434C39.183-63.434,36-66.292,31.648-66.292ZM92.224-23.88H66.93L92.224-54.664Zm-23.178-1H91.224V-51.872Z" transform="translate(-3.272 68.58)" fill="#ee4137" opacity="0.25"/>
</svg>
