<svg xmlns="http://www.w3.org/2000/svg" width="105.88" height="70.184" viewBox="0 0 105.88 70.184">
  <path id="_05" data-name="05" d="M82.984,1.6A40.834,40.834,0,0,1,73.856.533a35.782,35.782,0,0,1-8.584-3.126l-.365-.191,2.061-6.87.594.8c3.93,5.3,8.685,7.986,14.134,7.986a15.925,15.925,0,0,0,7.719-1.871,13.8,13.8,0,0,0,5.374-5.2,14.65,14.65,0,0,0,1.955-7.521A14.493,14.493,0,0,0,90.863-27.3c-3.939-3.1-10.18-4.677-18.551-4.677H69.1l3.124-35.5h36.3l-3.553,10.66H74.057l-1.106,12.34h4.7c6.97,0,12.873,1.067,17.547,3.172a23.709,23.709,0,0,1,10.519,8.511,21.418,21.418,0,0,1,3.438,11.817,20.687,20.687,0,0,1-3.443,11.732,23.087,23.087,0,0,1-9.446,7.993A30.611,30.611,0,0,1,82.984,1.6ZM66.1-3.29A34.989,34.989,0,0,0,74.08-.441,39.833,39.833,0,0,0,82.984.6,29.62,29.62,0,0,0,95.833-2.153,22.1,22.1,0,0,0,104.879-9.8a19.7,19.7,0,0,0,3.273-11.176,20.433,20.433,0,0,0-3.278-11.275,22.734,22.734,0,0,0-10.089-8.141c-4.544-2.046-10.31-3.084-17.137-3.084H71.857l1.286-14.34h31.1l2.887-8.66H73.138l-2.948,33.5h2.122a46.264,46.264,0,0,1,11.232,1.211,21.109,21.109,0,0,1,7.937,3.68,16.591,16.591,0,0,1,4.692,5.621,15.615,15.615,0,0,1,1.57,7.007,15.636,15.636,0,0,1-2.093,8.027,14.79,14.79,0,0,1-5.758,5.568A16.912,16.912,0,0,1,81.7.132a16.328,16.328,0,0,1-8.111-2.111,21.637,21.637,0,0,1-6.226-5.5ZM31.74,1.6A27.6,27.6,0,0,1,17.081-2.334,26.887,26.887,0,0,1,6.955-14.045C4.511-19.18,3.272-25.474,3.272-32.752c0-7.516,1.159-14.036,3.444-19.379a30.318,30.318,0,0,1,4.2-7.109,24.344,24.344,0,0,1,5.695-5.166,24.99,24.99,0,0,1,7.029-3.133,31.067,31.067,0,0,1,8.194-1.041,28.078,28.078,0,0,1,14.749,3.936A24.622,24.622,0,0,1,52.4-59.738a29.843,29.843,0,0,1,4.4,6.807C59.245-47.8,60.484-41.5,60.484-34.224c0,7.517-1.175,14.022-3.492,19.336A30.587,30.587,0,0,1,52.747-7.8a25,25,0,0,1-5.738,5.186A25.16,25.16,0,0,1,39.946.551,30.875,30.875,0,0,1,31.74,1.6Zm.092-69.184a26.462,26.462,0,0,0-14.678,4.013A25.756,25.756,0,0,0,7.636-51.737C5.4-46.519,4.272-40.132,4.272-32.752c0,7.129,1.206,13.278,3.585,18.277A25.906,25.906,0,0,0,17.6-3.186,26.615,26.615,0,0,0,31.74.6,26.464,26.464,0,0,0,46.463-3.455a26.241,26.241,0,0,0,9.613-11.833c2.262-5.187,3.408-11.558,3.408-18.936,0-7.129-1.206-13.278-3.585-18.277a25.7,25.7,0,0,0-9.835-11.287A27.093,27.093,0,0,0,31.832-67.58Zm.276,67.9a9.219,9.219,0,0,1-6.289-2.392A17.378,17.378,0,0,1,21.428-9.07a50.772,50.772,0,0,1-2.58-10.814,104.327,104.327,0,0,1-.856-14.064A104.073,104.073,0,0,1,18.8-47.607a50.729,50.729,0,0,1,2.441-10.524c2.216-6.079,5.717-9.161,10.406-9.161A9.219,9.219,0,0,1,37.937-64.9a17.379,17.379,0,0,1,4.391,6.995,50.767,50.767,0,0,1,2.58,10.791,103.416,103.416,0,0,1,.856,13.995,105.012,105.012,0,0,1-.809,13.728A50.735,50.735,0,0,1,42.514-8.845C40.3-2.766,36.8.316,32.108.316Zm-.46-66.608c-4.284,0-7.38,2.781-9.466,8.5-2.117,5.805-3.19,13.827-3.19,23.841,0,10.318,1.135,18.569,3.372,24.526,2.209,5.88,5.4,8.738,9.744,8.738,4.284,0,7.38-2.781,9.466-8.5,2.117-5.805,3.19-13.858,3.19-23.933,0-10.257-1.135-18.477-3.372-24.434C39.183-63.434,36-66.292,31.648-66.292Z" transform="translate(-3.272 68.58)" fill="#ee4137" opacity="0.25"/>
</svg>
