<svg xmlns="http://www.w3.org/2000/svg" width="115.172" height="70.256" viewBox="0 0 115.172 70.256">
  <path id="_06" data-name="06" d="M93.012,1.6A27.658,27.658,0,0,1,79.2-1.773a23.512,23.512,0,0,1-9.256-9.537A29.957,29.957,0,0,1,66.66-25.576a40.235,40.235,0,0,1,1.281-10.166,39.655,39.655,0,0,1,3.843-9.446,44.894,44.894,0,0,1,6.059-8.338A47.466,47.466,0,0,1,85.782-60.4a50.523,50.523,0,0,1,9.373-5.111,52.5,52.5,0,0,1,10.368-3.065l.429-.081.762,2.285-.5.146A29.531,29.531,0,0,0,87.976-51.831c-3.957,7.19-5.964,16.178-5.964,26.715,0,7.918,1.081,14.063,3.212,18.266,2.1,4.149,4.8,6.166,8.248,6.166,3.141,0,5.494-1.553,7.195-4.749,1.731-3.254,2.609-7.741,2.609-13.335,0-5.706-.95-10.153-2.825-13.217-1.852-3.027-4.285-4.5-7.439-4.5A10.867,10.867,0,0,0,85.8-33.57l-.385.335-1.525-1.83.293-.322A19.584,19.584,0,0,1,90.927-40.2a20.383,20.383,0,0,1,8.157-1.7,19.557,19.557,0,0,1,9.486,2.453,18.476,18.476,0,0,1,7.185,7.135,21.508,21.508,0,0,1,2.689,10.875A22.517,22.517,0,0,1,115.195-9.35a21.864,21.864,0,0,1-9.035,8.1A29.341,29.341,0,0,1,93.012,1.6Zm12.268-69.11a50.027,50.027,0,0,0-18.93,7.934A44.721,44.721,0,0,0,72.655-44.7a38.451,38.451,0,0,0-5,19.12,28.973,28.973,0,0,0,3.161,13.794,22.527,22.527,0,0,0,8.868,9.139A26.674,26.674,0,0,0,93.012.6a28.353,28.353,0,0,0,12.7-2.754,20.879,20.879,0,0,0,8.63-7.728,21.534,21.534,0,0,0,3.1-11.558,20.524,20.524,0,0,0-2.555-10.377,17.491,17.491,0,0,0-6.8-6.757A18.568,18.568,0,0,0,99.084-40.9a19.389,19.389,0,0,0-7.759,1.615,18.6,18.6,0,0,0-6.111,4.251l.317.38a11.678,11.678,0,0,1,7.481-2.83c3.482,0,6.273,1.675,8.293,4.977,1.972,3.224,2.971,7.846,2.971,13.739,0,5.76-.917,10.4-2.727,13.8C99.685-1.46,96.968.316,93.472.316c-3.805,0-6.881-2.259-9.14-6.714a28.837,28.837,0,0,1-2.5-7.982,62.561,62.561,0,0,1-.824-10.736,68.407,68.407,0,0,1,1.519-14.852A46.7,46.7,0,0,1,87.1-52.313,30.363,30.363,0,0,1,94.876-61.6a32.345,32.345,0,0,1,10.563-5.435ZM31.74,1.6A27.6,27.6,0,0,1,17.081-2.334,26.887,26.887,0,0,1,6.955-14.045C4.511-19.18,3.272-25.474,3.272-32.752c0-7.516,1.159-14.036,3.444-19.379a30.319,30.319,0,0,1,4.2-7.109,24.344,24.344,0,0,1,5.695-5.166,24.99,24.99,0,0,1,7.029-3.133,31.066,31.066,0,0,1,8.194-1.041,28.078,28.078,0,0,1,14.749,3.936A24.621,24.621,0,0,1,52.4-59.738a29.842,29.842,0,0,1,4.4,6.807C59.245-47.8,60.484-41.5,60.484-34.224c0,7.517-1.175,14.022-3.492,19.336A30.588,30.588,0,0,1,52.747-7.8a25,25,0,0,1-5.738,5.186A25.159,25.159,0,0,1,39.946.551,30.874,30.874,0,0,1,31.74,1.6Zm.092-69.184a26.463,26.463,0,0,0-14.678,4.013A25.756,25.756,0,0,0,7.636-51.737C5.4-46.519,4.272-40.132,4.272-32.752c0,7.129,1.206,13.278,3.585,18.277A25.906,25.906,0,0,0,17.6-3.186,26.615,26.615,0,0,0,31.74.6,26.464,26.464,0,0,0,46.463-3.455a26.241,26.241,0,0,0,9.613-11.833c2.262-5.187,3.408-11.558,3.408-18.936,0-7.129-1.206-13.278-3.585-18.277a25.7,25.7,0,0,0-9.835-11.287A27.093,27.093,0,0,0,31.832-67.58Zm.276,67.9a9.219,9.219,0,0,1-6.289-2.392A17.379,17.379,0,0,1,21.428-9.07a50.772,50.772,0,0,1-2.58-10.814,104.326,104.326,0,0,1-.856-14.064A104.074,104.074,0,0,1,18.8-47.607a50.729,50.729,0,0,1,2.441-10.524c2.216-6.079,5.717-9.161,10.406-9.161A9.219,9.219,0,0,1,37.937-64.9a17.379,17.379,0,0,1,4.391,6.995,50.767,50.767,0,0,1,2.58,10.791,103.416,103.416,0,0,1,.856,13.995,105.014,105.014,0,0,1-.809,13.728A50.735,50.735,0,0,1,42.514-8.845C40.3-2.766,36.8.316,32.108.316Zm-.46-66.608c-4.284,0-7.38,2.781-9.466,8.5-2.117,5.805-3.19,13.827-3.19,23.841,0,10.318,1.135,18.57,3.372,24.526,2.209,5.88,5.4,8.738,9.744,8.738,4.284,0,7.38-2.781,9.466-8.5,2.117-5.805,3.19-13.858,3.19-23.933,0-10.257-1.135-18.477-3.372-24.434C39.183-63.434,36-66.292,31.648-66.292Z" transform="translate(-3.272 68.652)" fill="#ee4137" opacity="0.25"/>
</svg>
