<svg xmlns="http://www.w3.org/2000/svg" xmlns:xlink="http://www.w3.org/1999/xlink" width="375" height="215" viewBox="0 0 375 215">
  <defs>
    <clipPath id="clip-path">
      <rect id="Rectangle_33" data-name="Rectangle 33" width="375" height="215" transform="translate(-11065 6917)" fill="#05172d"/>
    </clipPath>
  </defs>
  <g id="footer-bg-outline" transform="translate(11065 -6917)" clip-path="url(#clip-path)">
    <g id="Group_246" data-name="Group 246" transform="translate(-11065 2812)">
      <path id="Enter_Your_Growth_Zone_" data-name="Enter Your ‘Growth Zone’" d="M526.125,1.475a27.776,27.776,0,0,1-19.139-7.2,24.583,24.583,0,0,1-5.843-8.351A27.589,27.589,0,0,1,499-24.975a27.614,27.614,0,0,1,2.144-10.916,24.367,24.367,0,0,1,5.844-8.322,27.869,27.869,0,0,1,19.137-7.137,24.992,24.992,0,0,1,13.111,3.437,24.4,24.4,0,0,1,8.011,7.97l.286.452-9.73,5.277-.25-.392a13.8,13.8,0,0,0-4.6-4.423,13.429,13.429,0,0,0-6.824-1.871c-8.793,0-15.175,6.7-15.175,15.925S517.332-9.05,526.125-9.05a16.457,16.457,0,0,0,10.15-3.547v-5.277h-13.2v-10.3h24.85V-8.284l-.127.142a28.725,28.725,0,0,1-9.321,6.983A29.1,29.1,0,0,1,526.125,1.475Zm0-51.825a26.875,26.875,0,0,0-18.456,6.869,23.373,23.373,0,0,0-5.605,7.983A26.62,26.62,0,0,0,500-24.975C500-10.228,510.987.475,526.125.475a27.34,27.34,0,0,0,20.8-9.142V-27.175h-22.85v8.3h13.2v6.718l-.16.149a17.4,17.4,0,0,1-10.99,3.958,15.81,15.81,0,0,1-11.6-4.824,17.379,17.379,0,0,1-4.572-12.1,17.38,17.38,0,0,1,4.572-12.1,15.81,15.81,0,0,1,11.6-4.824,14.43,14.43,0,0,1,7.332,2.01,14.85,14.85,0,0,1,4.682,4.357l7.973-4.324C542.876-44.749,536.831-50.35,526.125-50.35ZM913.575,1.4c-15.413,0-26.6-11.092-26.6-26.375s11.187-26.375,26.6-26.375a28.936,28.936,0,0,1,10.665,1.958,25.052,25.052,0,0,1,8.455,5.47,24.676,24.676,0,0,1,5.559,8.356,28.041,28.041,0,0,1,2,10.591,28.041,28.041,0,0,1-2,10.591,24.68,24.68,0,0,1-5.559,8.356,25.051,25.051,0,0,1-8.455,5.47A28.936,28.936,0,0,1,913.575,1.4Zm0-51.75c-14.834,0-25.6,10.672-25.6,25.375S898.742.4,913.575.4c14.877,0,25.675-10.672,25.675-25.375S928.452-50.35,913.575-50.35ZM627.825,1.4c-15.413,0-26.6-11.092-26.6-26.375s11.187-26.375,26.6-26.375a28.937,28.937,0,0,1,10.665,1.958,25.053,25.053,0,0,1,8.455,5.47,24.679,24.679,0,0,1,5.559,8.356,28.041,28.041,0,0,1,2,10.591,28.041,28.041,0,0,1-2,10.591,24.68,24.68,0,0,1-5.559,8.356,25.053,25.053,0,0,1-8.455,5.47A28.937,28.937,0,0,1,627.825,1.4Zm0-51.75c-14.834,0-25.6,10.672-25.6,25.375S612.991.4,627.825.4C642.7.4,653.5-10.272,653.5-24.975S642.7-50.35,627.825-50.35ZM383.475,1.4A30.586,30.586,0,0,1,373.359-.156a19.331,19.331,0,0,1-7.231-4.4,18.14,18.14,0,0,1-4.311-6.775A25.03,25.03,0,0,1,360.4-19.95V-50.525h11.8v30.2c0,7.06,4.215,11.275,11.275,11.275a13.71,13.71,0,0,0,4.908-.826,9.314,9.314,0,0,0,3.475-2.29,11.6,11.6,0,0,0,2.816-8.159v-30.2H406.55v30.5a25.376,25.376,0,0,1-1.417,8.693,18.106,18.106,0,0,1-4.311,6.795,19.26,19.26,0,0,1-7.232,4.39A30.721,30.721,0,0,1,383.475,1.4ZM361.4-49.525V-19.95C361.4-7.017,369.446.4,383.475.4S405.55-7.045,405.55-20.025v-29.5h-9.875v29.2a12.569,12.569,0,0,1-3.09,8.847,10.3,10.3,0,0,1-3.844,2.536,14.7,14.7,0,0,1-5.266.892,14.792,14.792,0,0,1-5.277-.892,10.427,10.427,0,0,1-3.869-2.535,12.5,12.5,0,0,1-3.129-8.848v-29.2ZM327.225,1.4c-15.413,0-26.6-11.092-26.6-26.375s11.187-26.375,26.6-26.375a28.936,28.936,0,0,1,10.665,1.958,25.053,25.053,0,0,1,8.455,5.47,24.679,24.679,0,0,1,5.559,8.356,28.041,28.041,0,0,1,2,10.591,28.041,28.041,0,0,1-2,10.591,24.68,24.68,0,0,1-5.559,8.356,25.053,25.053,0,0,1-8.455,5.47A28.936,28.936,0,0,1,327.225,1.4Zm0-51.75c-14.834,0-25.6,10.672-25.6,25.375S312.391.4,327.225.4C342.1.4,352.9-10.272,352.9-24.975S342.1-50.35,327.225-50.35ZM1037.825.5h-36.4V-50.525h36.4V-40.15h-24.75v9.575H1037.3V-20.2h-24.225V-9.875h24.75Zm-35.4-1h34.4V-8.875h-24.75V-21.2H1036.3v-8.375h-24.225V-41.15h24.75v-8.375h-34.4Zm-9.9,1H981.5l-.15-.2L958.4-31.094V.5H946.75V-50.525h11.7l22.423,30.4v-30.4h11.65ZM982-.5h9.521V-49.525h-9.65V-17.08L957.948-49.525h-10.2V-.5h9.65V-34.156ZM883.325.5h-39.1V-8.79l.1-.132L867.36-40.15H844.225V-50.525H882.8v9.214L859.664-9.875h23.661Zm-38.1-1h37.1V-8.875H857.686L881.8-41.639v-7.886H845.225v8.375H869.34L845.225-8.46ZM818,.5H806.275v-21H783.65V.5H772V-50.525h11.65v19.65h22.625v-19.65H818Zm-10.725-1H817V-49.525h-9.725v19.65H782.65v-19.65H773V-.5h9.65v-21h24.625Zm-55.65,1H739.9V-40.15H725.275V-50.525h40.9V-40.15h-14.55ZM740.9-.5h9.725V-41.15h14.55v-8.375h-38.9v8.375H740.9ZM709.953.5H697.862l-8.385-32.822L681.164.5H669.073L654.462-50.525h12.981l.093.382,8.309,34.23,9.12-34.612h9.1l9.044,34.6,8.326-34.6h13.056l-.181.637Zm-11.314-1H709.2l13.965-49.025H712.219l-8.608,35.767-.97.009-9.352-35.776h-7.554l-9.427,35.777-.969-.009-8.682-35.768H655.788L669.827-.5h10.559l8.6-33.973h.969ZM597.276.5h-13.4l-9.825-17.775H567.05V.5H555.4V-50.525h23.9c5.165,0,9.543,1.632,12.661,4.72a15.1,15.1,0,0,1,3.446,5.28A18.139,18.139,0,0,1,596.6-33.9a18.063,18.063,0,0,1-.98,6.042,14.558,14.558,0,0,1-2.587,4.546,14.586,14.586,0,0,1-7.115,4.579ZM584.47-.5h11.054l-11.15-18.881.661-.156a13.592,13.592,0,0,0,7.233-4.42,13.57,13.57,0,0,0,2.409-4.236A17.069,17.069,0,0,0,595.6-33.9a17.146,17.146,0,0,0-1.125-6.261,14.111,14.111,0,0,0-3.218-4.934c-2.927-2.9-7.062-4.43-11.958-4.43H556.4V-.5h9.65V-18.275h8.595ZM457.251.5h-13.4L434.03-17.275h-7.005V.5h-11.65V-50.525h23.9c5.165,0,9.543,1.632,12.661,4.72a15.1,15.1,0,0,1,3.446,5.28,18.139,18.139,0,0,1,1.193,6.625,18.065,18.065,0,0,1-.98,6.042,14.558,14.558,0,0,1-2.587,4.546,14.586,14.586,0,0,1-7.115,4.579Zm-12.806-1H455.5l-11.15-18.881.661-.156a13.592,13.592,0,0,0,7.233-4.42,13.569,13.569,0,0,0,2.409-4.236,17.068,17.068,0,0,0,.923-5.708,17.145,17.145,0,0,0-1.125-6.261,14.111,14.111,0,0,0-3.218-4.934c-2.927-2.9-7.062-4.43-11.958-4.43h-22.9V-.5h9.65V-18.275h8.595ZM283.25.5H271.6V-20.326l-19.7-30.2h13.351l.147.237,12.022,19.41,12.022-19.646h13.349l-19.544,30.2ZM272.6-.5h9.65V-20.623l.08-.124,18.625-28.778H290.005L277.428-28.971,264.7-49.525H253.748l18.852,28.9ZM232.1.5h-13.4L208.88-17.275h-7V.5h-11.65V-50.525h23.9c5.165,0,9.543,1.632,12.661,4.72a15.1,15.1,0,0,1,3.446,5.28,18.139,18.139,0,0,1,1.193,6.625,18.064,18.064,0,0,1-.98,6.042,14.558,14.558,0,0,1-2.587,4.546,14.586,14.586,0,0,1-7.115,4.579Zm-12.806-1h11.054L219.2-19.381l.661-.156a13.592,13.592,0,0,0,7.233-4.42,13.569,13.569,0,0,0,2.409-4.236,17.068,17.068,0,0,0,.923-5.708,17.142,17.142,0,0,0-1.125-6.261,14.107,14.107,0,0,0-3.218-4.934c-2.927-2.9-7.061-4.43-11.957-4.43h-22.9V-.5h9.65V-18.275h8.595ZM182.9.5H146.5V-50.525h36.4V-40.15H158.15v9.575h24.225V-20.2H158.15V-9.875H182.9Zm-35.4-1h34.4V-8.875H157.15V-21.2h24.225v-8.375H157.15V-41.15H181.9v-8.375H147.5ZM126.125.5H114.4V-40.15H99.775V-50.525h40.9V-40.15h-14.55ZM115.4-.5h9.725V-41.15h14.55v-8.375h-38.9v8.375H115.4ZM93.95.5H82.921l-.15-.2L59.825-31.094V.5H48.175V-50.525h11.7L82.3-20.12v-30.4H93.95ZM83.429-.5H92.95V-49.525H83.3V-17.08L59.372-49.525h-10.2V-.5h9.65V-34.156ZM40.85.5H4.45V-50.525h36.4V-40.15H16.1v9.575H40.325V-20.2H16.1V-9.875H40.85ZM5.45-.5h34.4V-8.875H15.1V-21.2H39.325v-8.375H15.1V-41.15H39.85v-8.375H5.45ZM913.575-8.05a15.966,15.966,0,0,1-6.46-1.3,14.322,14.322,0,0,1-4.947-3.591,17.915,17.915,0,0,1-4.243-12.033,20.02,20.02,0,0,1,1.1-6.688,15.929,15.929,0,0,1,3.145-5.374,14.264,14.264,0,0,1,4.948-3.573,16.063,16.063,0,0,1,6.459-1.29,16.143,16.143,0,0,1,6.47,1.289,14.382,14.382,0,0,1,4.973,3.572,15.942,15.942,0,0,1,3.172,5.374,19.843,19.843,0,0,1,1.111,6.69,17.842,17.842,0,0,1-4.282,12.035,14.44,14.44,0,0,1-4.972,3.59A16.045,16.045,0,0,1,913.575-8.05Zm0-32.85a15.07,15.07,0,0,0-6.059,1.206,13.27,13.27,0,0,0-4.6,3.325,14.933,14.933,0,0,0-2.946,5.039,19.026,19.026,0,0,0-1.041,6.355c0,9.376,6.024,15.925,14.65,15.925,8.67,0,14.725-6.549,14.725-15.925S922.245-40.9,913.575-40.9ZM627.825-8.05a15.966,15.966,0,0,1-6.46-1.3,14.322,14.322,0,0,1-4.947-3.591,17.915,17.915,0,0,1-4.243-12.033,20.02,20.02,0,0,1,1.1-6.688,15.929,15.929,0,0,1,3.145-5.374,14.264,14.264,0,0,1,4.948-3.573,16.063,16.063,0,0,1,6.459-1.29,16.143,16.143,0,0,1,6.47,1.289,14.382,14.382,0,0,1,4.973,3.572,15.942,15.942,0,0,1,3.172,5.374,19.843,19.843,0,0,1,1.111,6.69,17.842,17.842,0,0,1-4.282,12.035,14.44,14.44,0,0,1-4.972,3.59A16.045,16.045,0,0,1,627.825-8.05Zm0-32.85a15.07,15.07,0,0,0-6.059,1.206,13.27,13.27,0,0,0-4.6,3.325,14.933,14.933,0,0,0-2.946,5.039,19.026,19.026,0,0,0-1.041,6.355c0,9.376,6.024,15.925,14.65,15.925,8.67,0,14.725-6.549,14.725-15.925S636.495-40.9,627.825-40.9ZM327.225-8.05a15.965,15.965,0,0,1-6.46-1.3,14.323,14.323,0,0,1-4.947-3.591,17.916,17.916,0,0,1-4.243-12.033,20.019,20.019,0,0,1,1.1-6.688,15.928,15.928,0,0,1,3.145-5.374,14.263,14.263,0,0,1,4.948-3.573,16.062,16.062,0,0,1,6.459-1.29,16.144,16.144,0,0,1,6.47,1.289,14.383,14.383,0,0,1,4.973,3.572,15.942,15.942,0,0,1,3.171,5.374,19.842,19.842,0,0,1,1.111,6.69,17.841,17.841,0,0,1-4.282,12.035,14.44,14.44,0,0,1-4.972,3.59A16.047,16.047,0,0,1,327.225-8.05Zm0-32.85a15.071,15.071,0,0,0-6.059,1.206,13.27,13.27,0,0,0-4.6,3.325,14.933,14.933,0,0,0-2.946,5.039,19.026,19.026,0,0,0-1.041,6.355c0,9.376,6.024,15.925,14.65,15.925,8.67,0,14.725-6.549,14.725-15.925S335.895-40.9,327.225-40.9Zm250.5,14.25H566.05v-14.5h11.675a8.624,8.624,0,0,1,5.681,1.922,6.819,6.819,0,0,1,2.319,5.328,6.819,6.819,0,0,1-2.319,5.328A8.624,8.624,0,0,1,577.725-26.65Zm-10.675-1h10.675a7.632,7.632,0,0,0,5.026-1.678,5.848,5.848,0,0,0,1.974-4.572,5.848,5.848,0,0,0-1.974-4.572,7.632,7.632,0,0,0-5.026-1.678H567.05Zm-129.35,1H426.025v-14.5H437.7a8.624,8.624,0,0,1,5.681,1.922A6.819,6.819,0,0,1,445.7-33.9a6.819,6.819,0,0,1-2.319,5.328A8.624,8.624,0,0,1,437.7-26.65Zm-10.675-1H437.7a7.631,7.631,0,0,0,5.026-1.678A5.848,5.848,0,0,0,444.7-33.9a5.848,5.848,0,0,0-1.974-4.572A7.631,7.631,0,0,0,437.7-40.15H427.025Zm-214.475,1H200.875v-14.5H212.55a8.624,8.624,0,0,1,5.681,1.922A6.819,6.819,0,0,1,220.55-33.9a6.819,6.819,0,0,1-2.319,5.328A8.624,8.624,0,0,1,212.55-26.65Zm-10.675-1H212.55a7.632,7.632,0,0,0,5.026-1.678A5.848,5.848,0,0,0,219.55-33.9a5.848,5.848,0,0,0-1.974-4.572,7.632,7.632,0,0,0-5.026-1.678H201.875Zm847.206-.895-5-4.094.664-.353A12.775,12.775,0,0,0,1050-38.933a4.464,4.464,0,0,1-.68.058,5.629,5.629,0,0,1-5.6-5.9,6.513,6.513,0,0,1,1.887-4.588,6.233,6.233,0,0,1,4.463-1.912,6.935,6.935,0,0,1,5.058,2.151,8.463,8.463,0,0,1,2.192,6,16.12,16.12,0,0,1-2.213,8.1,20.241,20.241,0,0,1-5.719,6.26Zm-3.235-3.939,3.27,2.676a19.154,19.154,0,0,0,5.128-5.719,15.133,15.133,0,0,0,2.081-7.6,7.487,7.487,0,0,0-1.914-5.307,5.944,5.944,0,0,0-4.336-1.843,5.5,5.5,0,0,0-5.35,5.5,5.048,5.048,0,0,0,1.342,3.535,4.469,4.469,0,0,0,3.258,1.365,3.133,3.133,0,0,0,1.149-.217l1.035-.689-.27,1.215C1050.634-36.846,1048.1-33.934,1045.846-32.483ZM487.95-28.75a6.935,6.935,0,0,1-5.058-2.151,8.463,8.463,0,0,1-2.192-6,15.965,15.965,0,0,1,2.224-8.088,19.6,19.6,0,0,1,5.791-6.2l.306-.212,5.01,4.008-.672.357a13.178,13.178,0,0,0-5.337,5.994c.3-.03.58-.036.753-.036a5.48,5.48,0,0,1,3.978,1.642,6.045,6.045,0,0,1,1.622,4.258,6.371,6.371,0,0,1-1.9,4.525A6.371,6.371,0,0,1,487.95-28.75Zm1.031-21.4a18.527,18.527,0,0,0-5.193,5.663A14.977,14.977,0,0,0,481.7-36.9a7.487,7.487,0,0,0,1.914,5.307,5.944,5.944,0,0,0,4.336,1.843,5.5,5.5,0,0,0,5.425-5.425,4.6,4.6,0,0,0-4.6-4.9,3.889,3.889,0,0,0-1.227.144l-1.072.714.314-1.255c.682-2.727,3.232-5.626,5.457-7.065Z" transform="translate(-10 4161.5)" fill="#a2a2a2" style="mix-blend-mode: hard-light;isolation: isolate"/>
      <path id="enter_your_Growth" data-name="enter your ‘Growth" d="M-296.25,1.475a27.776,27.776,0,0,1-19.138-7.2,24.582,24.582,0,0,1-5.843-8.351,27.587,27.587,0,0,1-2.144-10.9,27.616,27.616,0,0,1,2.144-10.916,24.367,24.367,0,0,1,5.844-8.322A27.869,27.869,0,0,1-296.25-51.35a24.992,24.992,0,0,1,13.111,3.438,24.4,24.4,0,0,1,8.011,7.97l.286.452-9.729,5.277-.251-.393a13.8,13.8,0,0,0-4.6-4.423A13.429,13.429,0,0,0-296.25-40.9c-8.793,0-15.175,6.7-15.175,15.925S-305.043-9.05-296.25-9.05A16.458,16.458,0,0,0-286.1-12.6v-5.277h-13.2v-10.3h24.85V-8.284l-.127.142A28.727,28.727,0,0,1-283.9-1.159,29.1,29.1,0,0,1-296.25,1.475Zm0-51.825a26.874,26.874,0,0,0-18.456,6.869,23.374,23.374,0,0,0-5.605,7.983,26.622,26.622,0,0,0-2.063,10.523c0,14.747,10.987,25.45,26.125,25.45a27.34,27.34,0,0,0,20.8-9.142V-27.175H-298.3v8.3h13.2v6.719l-.16.148A17.4,17.4,0,0,1-296.25-8.05a15.81,15.81,0,0,1-11.6-4.824,17.38,17.38,0,0,1-4.572-12.1,17.38,17.38,0,0,1,4.572-12.1,15.81,15.81,0,0,1,11.6-4.824,14.43,14.43,0,0,1,7.332,2.01,14.849,14.849,0,0,1,4.682,4.357l7.973-4.324C-279.5-44.749-285.544-50.35-296.25-50.35ZM-194.55,1.4c-15.413,0-26.6-11.092-26.6-26.375s11.187-26.375,26.6-26.375a28.934,28.934,0,0,1,10.665,1.958,25.05,25.05,0,0,1,8.455,5.47,24.679,24.679,0,0,1,5.559,8.356,28.041,28.041,0,0,1,2,10.591,28.041,28.041,0,0,1-2,10.591,24.679,24.679,0,0,1-5.559,8.356,25.05,25.05,0,0,1-8.455,5.47A28.934,28.934,0,0,1-194.55,1.4Zm0-51.75c-14.834,0-25.6,10.672-25.6,25.375S-209.384.4-194.55.4c14.877,0,25.675-10.672,25.675-25.375S-179.673-50.35-194.55-50.35ZM-438.9,1.4A30.586,30.586,0,0,1-449.016-.156a19.334,19.334,0,0,1-7.231-4.4,18.14,18.14,0,0,1-4.311-6.775,25.031,25.031,0,0,1-1.417-8.619V-50.525h11.8v30.2c0,7.06,4.215,11.275,11.275,11.275a13.709,13.709,0,0,0,4.908-.826,9.314,9.314,0,0,0,3.475-2.289,11.6,11.6,0,0,0,2.816-8.16v-30.2h11.875v30.5a25.38,25.38,0,0,1-1.417,8.693,18.106,18.106,0,0,1-4.311,6.795,19.259,19.259,0,0,1-7.232,4.39A30.724,30.724,0,0,1-438.9,1.4Zm-22.075-50.925V-19.95C-460.975-7.017-452.929.4-438.9.4s22.075-7.445,22.075-20.425v-29.5H-426.7v29.2a12.57,12.57,0,0,1-3.09,8.847,10.3,10.3,0,0,1-3.844,2.536,14.7,14.7,0,0,1-5.266.892,14.791,14.791,0,0,1-5.277-.892,10.424,10.424,0,0,1-3.869-2.535,12.5,12.5,0,0,1-3.129-8.848v-29.2ZM-495.15,1.4c-15.413,0-26.6-11.092-26.6-26.375s11.187-26.375,26.6-26.375a28.934,28.934,0,0,1,10.665,1.958,25.05,25.05,0,0,1,8.455,5.47,24.678,24.678,0,0,1,5.559,8.356,28.04,28.04,0,0,1,2,10.591,28.04,28.04,0,0,1-2,10.591,24.678,24.678,0,0,1-5.559,8.356,25.051,25.051,0,0,1-8.455,5.47A28.934,28.934,0,0,1-495.15,1.4Zm0-51.75c-14.834,0-25.6,10.672-25.6,25.375S-509.984.4-495.15.4c14.877,0,25.675-10.672,25.675-25.375S-480.273-50.35-495.15-50.35ZM-4.375.5H-16.1v-21H-38.725V.5h-11.65V-50.525h11.65v19.65H-16.1v-19.65H-4.375ZM-15.1-.5h9.725V-49.525H-15.1v19.65H-39.725v-19.65h-9.65V-.5h9.65v-21H-15.1ZM-70.75.5H-82.475V-40.15H-97.1V-50.525h40.9V-40.15H-70.75Zm-10.725-1h9.725V-41.15H-57.2v-8.375H-96.1v8.375h14.625Zm-30.948,1h-12.091L-132.9-32.322-141.211.5H-153.3l-.1-.362-14.508-50.663h12.982l.093.382,8.309,34.23,9.12-34.612h9.1l.1.374,8.946,34.223,8.326-34.6h13.056l-.181.637Zm-11.314-1h10.559l13.965-49.025h-10.944l-8.608,35.767-.97.01-9.352-35.776h-7.554l-9.427,35.777-.969-.01-8.682-35.768h-10.869L-152.548-.5h10.559l8.6-33.973h.969ZM-225.1.5h-13.4l-9.825-17.775h-7.005V.5h-11.65V-50.525h23.9c5.165,0,9.543,1.632,12.661,4.72a15.1,15.1,0,0,1,3.446,5.28,18.137,18.137,0,0,1,1.193,6.625,18.062,18.062,0,0,1-.98,6.042,14.562,14.562,0,0,1-2.587,4.546,14.587,14.587,0,0,1-7.115,4.578Zm-12.806-1h11.054L-238-19.381l.661-.156a13.593,13.593,0,0,0,7.233-4.42,13.566,13.566,0,0,0,2.41-4.236,17.067,17.067,0,0,0,.923-5.708c0-9.346-6.551-15.625-16.3-15.625h-22.9V-.5h9.65V-18.275h8.595ZM-365.124.5h-13.4l-9.825-17.775h-7.005V.5H-407V-50.525h23.9c5.165,0,9.543,1.632,12.661,4.72a15.1,15.1,0,0,1,3.446,5.28A18.14,18.14,0,0,1-365.8-33.9a18.064,18.064,0,0,1-.98,6.042,14.564,14.564,0,0,1-2.588,4.546,14.586,14.586,0,0,1-7.115,4.578Zm-12.806-1h11.054l-11.15-18.881.661-.156a13.593,13.593,0,0,0,7.233-4.42,13.567,13.567,0,0,0,2.409-4.236A17.067,17.067,0,0,0-366.8-33.9c0-9.346-6.551-15.625-16.3-15.625H-406V-.5h9.65V-18.275h8.595ZM-539.125.5h-11.65V-20.326l-19.7-30.2h13.352l.147.237,12.022,19.41,12.022-19.646h13.349l-19.544,30.2Zm-10.65-1h9.65V-20.623l.08-.124,18.626-28.778H-532.37l-12.578,20.554-12.731-20.554h-10.948l18.852,28.9Zm-40.5,1h-13.4l-9.825-17.775H-620.5V.5h-11.65V-50.525h23.9c5.165,0,9.543,1.632,12.661,4.72a15.1,15.1,0,0,1,3.446,5.28A18.138,18.138,0,0,1-590.95-33.9a18.064,18.064,0,0,1-.98,6.042,14.565,14.565,0,0,1-2.587,4.546,14.587,14.587,0,0,1-7.115,4.578Zm-12.806-1h11.054l-11.15-18.881.661-.156a13.593,13.593,0,0,0,7.233-4.42,13.566,13.566,0,0,0,2.409-4.236,17.067,17.067,0,0,0,.923-5.708c0-9.346-6.551-15.625-16.3-15.625h-22.9V-.5h9.65V-18.275h8.595Zm-36.4,1h-36.4V-50.525h36.4V-40.15h-24.75v9.575H-640V-20.2h-24.225V-9.875h24.75Zm-35.4-1h34.4V-8.875h-24.75V-21.2H-641v-8.375h-24.225V-41.15h24.75v-8.375h-34.4ZM-696.25.5h-11.725V-40.15H-722.6V-50.525h40.9V-40.15h-14.55Zm-10.725-1h9.725V-41.15h14.55v-8.375h-38.9v8.375h14.625Zm-21.45,1h-11.029l-.15-.2L-762.55-31.094V.5H-774.2V-50.525h11.7l.15.2,22.273,30.2v-30.4h11.65Zm-10.521-1h9.521V-49.525h-9.65V-17.08L-763-49.525h-10.2V-.5h9.65V-34.156Zm-42.579,1h-36.4V-50.525h36.4V-40.15h-24.75v9.575h24.225V-20.2h-24.225V-9.875h24.75Zm-35.4-1h34.4V-8.875h-24.75V-21.2h24.225v-8.375h-24.225V-41.15h24.75v-8.375h-34.4ZM-194.55-8.05a15.966,15.966,0,0,1-6.46-1.3,14.323,14.323,0,0,1-4.947-3.591A17.916,17.916,0,0,1-210.2-24.975a20.02,20.02,0,0,1,1.1-6.688,15.926,15.926,0,0,1,3.145-5.374,14.263,14.263,0,0,1,4.948-3.573,16.063,16.063,0,0,1,6.459-1.29,16.143,16.143,0,0,1,6.47,1.289,14.383,14.383,0,0,1,4.973,3.572,15.945,15.945,0,0,1,3.171,5.374,19.842,19.842,0,0,1,1.111,6.69,17.841,17.841,0,0,1-4.282,12.035,14.441,14.441,0,0,1-4.972,3.59A16.045,16.045,0,0,1-194.55-8.05Zm0-32.85c-8.626,0-14.65,6.549-14.65,15.925S-203.176-9.05-194.55-9.05c8.67,0,14.725-6.549,14.725-15.925S-185.88-40.9-194.55-40.9ZM-495.15-8.05a15.966,15.966,0,0,1-6.46-1.3,14.323,14.323,0,0,1-4.947-3.591A17.916,17.916,0,0,1-510.8-24.975a20.02,20.02,0,0,1,1.1-6.688,15.927,15.927,0,0,1,3.145-5.374,14.263,14.263,0,0,1,4.948-3.573,16.064,16.064,0,0,1,6.459-1.29,16.143,16.143,0,0,1,6.47,1.289,14.384,14.384,0,0,1,4.973,3.572,15.946,15.946,0,0,1,3.171,5.374,19.842,19.842,0,0,1,1.111,6.69,17.841,17.841,0,0,1-4.282,12.035,14.441,14.441,0,0,1-4.972,3.59A16.045,16.045,0,0,1-495.15-8.05Zm0-32.85c-8.626,0-14.65,6.549-14.65,15.925S-503.776-9.05-495.15-9.05c8.67,0,14.725-6.549,14.725-15.925S-486.48-40.9-495.15-40.9Zm250.5,14.25h-11.675v-14.5h11.675a8.625,8.625,0,0,1,5.681,1.922A6.82,6.82,0,0,1-236.65-33.9a6.82,6.82,0,0,1-2.319,5.328A8.625,8.625,0,0,1-244.65-26.65Zm-10.675-1h10.675c4.187,0,7-2.512,7-6.25s-2.813-6.25-7-6.25h-10.675Zm-129.35,1H-396.35v-14.5h11.675a8.625,8.625,0,0,1,5.681,1.922,6.82,6.82,0,0,1,2.319,5.328,6.82,6.82,0,0,1-2.319,5.328A8.625,8.625,0,0,1-384.675-26.65Zm-10.675-1h10.675c4.187,0,7-2.512,7-6.25s-2.813-6.25-7-6.25H-395.35Zm-214.475,1H-621.5v-14.5h11.675a8.625,8.625,0,0,1,5.681,1.922,6.82,6.82,0,0,1,2.319,5.328,6.82,6.82,0,0,1-2.319,5.328A8.625,8.625,0,0,1-609.825-26.65Zm-10.675-1h10.675c4.187,0,7-2.512,7-6.25s-2.813-6.25-7-6.25H-620.5Zm286.075-1.1a6.935,6.935,0,0,1-5.058-2.151,8.463,8.463,0,0,1-2.192-6,15.965,15.965,0,0,1,2.224-8.088,19.605,19.605,0,0,1,5.792-6.2l.306-.212,5.01,4.008-.672.357a13.178,13.178,0,0,0-5.337,5.994c.3-.03.58-.036.753-.036a5.48,5.48,0,0,1,3.978,1.642A6.046,6.046,0,0,1-328-35.175a6.371,6.371,0,0,1-1.9,4.525A6.371,6.371,0,0,1-334.425-28.75Zm1.032-21.4a18.528,18.528,0,0,0-5.193,5.663,14.977,14.977,0,0,0-2.089,7.587,7.487,7.487,0,0,0,1.914,5.307,5.944,5.944,0,0,0,4.336,1.843A5.5,5.5,0,0,0-329-35.175a4.6,4.6,0,0,0-4.6-4.9,3.9,3.9,0,0,0-1.226.143l-1.072.715.314-1.255c.682-2.727,3.232-5.626,5.457-7.066Z" transform="translate(438 4237.5)" fill="#a2a2a2" style="mix-blend-mode: hard-light;isolation: isolate"/>
      <path id="enter_your_Growth_Zone_2" data-name="enter your ‘Growth Zone’" d="M-533.7,1.475a27.776,27.776,0,0,1-19.139-7.2,24.583,24.583,0,0,1-5.843-8.351,27.59,27.59,0,0,1-2.144-10.9,27.613,27.613,0,0,1,2.144-10.916,24.366,24.366,0,0,1,5.844-8.322A27.869,27.869,0,0,1-533.7-51.35a24.992,24.992,0,0,1,13.111,3.437,24.4,24.4,0,0,1,8.011,7.97l.286.452-9.729,5.277-.251-.392a13.8,13.8,0,0,0-4.6-4.423A13.43,13.43,0,0,0-533.7-40.9c-8.793,0-15.175,6.7-15.175,15.925S-542.493-9.05-533.7-9.05A16.458,16.458,0,0,0-523.55-12.6v-5.277h-13.2v-10.3h24.85V-8.284l-.127.142a28.725,28.725,0,0,1-9.321,6.983A29.1,29.1,0,0,1-533.7,1.475Zm0-51.825a26.875,26.875,0,0,0-18.456,6.869,23.373,23.373,0,0,0-5.605,7.983,26.62,26.62,0,0,0-2.063,10.523c0,14.747,10.987,25.45,26.125,25.45a27.34,27.34,0,0,0,20.8-9.142V-27.175h-22.85v8.3h13.2v6.719l-.16.148A17.4,17.4,0,0,1-533.7-8.05a15.81,15.81,0,0,1-11.6-4.824,17.379,17.379,0,0,1-4.572-12.1,17.38,17.38,0,0,1,4.572-12.1A15.81,15.81,0,0,1-533.7-41.9a14.43,14.43,0,0,1,7.332,2.01,14.849,14.849,0,0,1,4.682,4.357l7.973-4.324C-516.949-44.749-522.994-50.35-533.7-50.35ZM-146.25,1.4c-15.413,0-26.6-11.092-26.6-26.375s11.187-26.375,26.6-26.375a28.936,28.936,0,0,1,10.665,1.958,25.052,25.052,0,0,1,8.455,5.47,24.677,24.677,0,0,1,5.559,8.356,28.041,28.041,0,0,1,2,10.591,28.041,28.041,0,0,1-2,10.591,24.68,24.68,0,0,1-5.559,8.356,25.052,25.052,0,0,1-8.455,5.47A28.936,28.936,0,0,1-146.25,1.4Zm0-51.75c-14.834,0-25.6,10.672-25.6,25.375S-161.084.4-146.25.4c14.877,0,25.675-10.672,25.675-25.375S-131.373-50.35-146.25-50.35ZM-432,1.4c-15.413,0-26.6-11.092-26.6-26.375S-447.413-51.35-432-51.35a28.937,28.937,0,0,1,10.665,1.958,25.054,25.054,0,0,1,8.455,5.47,24.679,24.679,0,0,1,5.559,8.356,28.041,28.041,0,0,1,2,10.591,28.041,28.041,0,0,1-2,10.591,24.68,24.68,0,0,1-5.559,8.356,25.054,25.054,0,0,1-8.455,5.47A28.937,28.937,0,0,1-432,1.4Zm0-51.75c-14.834,0-25.6,10.672-25.6,25.375S-446.834.4-432,.4c14.877,0,25.675-10.672,25.675-25.375S-417.123-50.35-432-50.35ZM-676.35,1.4A30.585,30.585,0,0,1-686.466-.156a19.331,19.331,0,0,1-7.231-4.4,18.14,18.14,0,0,1-4.311-6.775,25.03,25.03,0,0,1-1.417-8.619V-50.525h11.8v30.2c0,7.06,4.215,11.275,11.275,11.275a13.71,13.71,0,0,0,4.908-.826,9.314,9.314,0,0,0,3.475-2.29,11.6,11.6,0,0,0,2.816-8.159v-30.2h11.875v30.5a25.376,25.376,0,0,1-1.417,8.693A18.105,18.105,0,0,1-659-4.537a19.26,19.26,0,0,1-7.232,4.39A30.722,30.722,0,0,1-676.35,1.4Zm-22.075-50.925V-19.95C-698.425-7.017-690.379.4-676.35.4s22.075-7.445,22.075-20.425v-29.5h-9.875v29.2a12.569,12.569,0,0,1-3.09,8.847,10.3,10.3,0,0,1-3.844,2.536,14.7,14.7,0,0,1-5.266.892,14.792,14.792,0,0,1-5.277-.892,10.428,10.428,0,0,1-3.869-2.535,12.5,12.5,0,0,1-3.129-8.848v-29.2ZM-732.6,1.4c-15.413,0-26.6-11.092-26.6-26.375s11.187-26.375,26.6-26.375a28.936,28.936,0,0,1,10.665,1.958,25.053,25.053,0,0,1,8.455,5.47,24.679,24.679,0,0,1,5.559,8.356,28.041,28.041,0,0,1,2,10.591,28.041,28.041,0,0,1-2,10.591,24.68,24.68,0,0,1-5.559,8.356,25.053,25.053,0,0,1-8.455,5.47A28.936,28.936,0,0,1-732.6,1.4Zm0-51.75c-14.834,0-25.6,10.672-25.6,25.375S-747.434.4-732.6.4c14.877,0,25.675-10.672,25.675-25.375S-717.723-50.35-732.6-50.35ZM-22,.5H-58.4V-50.525H-22V-40.15H-46.75v9.575h24.225V-20.2H-46.75V-9.875H-22Zm-35.4-1H-23V-8.875H-47.75V-21.2h24.225v-8.375H-47.75V-41.15H-23v-8.375H-57.4Zm-9.9,1H-78.329l-.15-.2-22.946-31.389V.5h-11.65V-50.525h11.7l22.423,30.4v-30.4H-67.3Zm-10.521-1H-68.3V-49.525h-9.65V-17.08l-23.928-32.445h-10.2V-.5h9.65V-34.156ZM-176.5.5h-39.1V-8.79l.1-.132,23.037-31.228H-215.6V-50.525h38.575v9.214L-200.161-9.875H-176.5Zm-38.1-1h37.1V-8.875h-24.639l24.114-32.764v-7.886H-214.6v8.375h24.115L-214.6-8.46Zm-27.225,1H-253.55v-21h-22.625V.5h-11.65V-50.525h11.65v19.65h22.625v-19.65h11.725Zm-10.725-1h9.725V-49.525h-9.725v19.65h-24.625v-19.65h-9.65V-.5h9.65v-21h24.625ZM-308.2.5h-11.725V-40.15H-334.55V-50.525h40.9V-40.15H-308.2Zm-10.725-1h9.725V-41.15h14.55v-8.375h-38.9v8.375h14.625Zm-30.947,1h-12.091l-8.385-32.822L-378.661.5h-12.091l-.1-.362-14.508-50.663h12.981l.093.382,8.309,34.23,9.12-34.612h9.1l.1.374,8.946,34.223,8.326-34.6h13.056l-.181.637Zm-11.314-1h10.559l13.965-49.025h-10.944l-8.608,35.767-.97.009-9.352-35.776h-7.554l-9.427,35.777-.969-.009-8.682-35.768h-10.869L-390-.5h10.559l8.6-33.973h.969ZM-462.549.5h-13.4l-9.825-17.775h-7.005V.5h-11.65V-50.525h23.9c5.165,0,9.543,1.632,12.661,4.72a15.1,15.1,0,0,1,3.446,5.28,18.139,18.139,0,0,1,1.193,6.625,18.065,18.065,0,0,1-.98,6.042,14.558,14.558,0,0,1-2.587,4.546,14.586,14.586,0,0,1-7.115,4.579Zm-12.806-1H-464.3l-11.15-18.881.661-.156a13.592,13.592,0,0,0,7.233-4.42,13.569,13.569,0,0,0,2.409-4.236,17.068,17.068,0,0,0,.923-5.708,17.144,17.144,0,0,0-1.125-6.261,14.111,14.111,0,0,0-3.218-4.934c-2.927-2.9-7.062-4.43-11.958-4.43h-22.9V-.5h9.65V-18.275h8.595ZM-602.574.5h-13.4l-9.825-17.775H-632.8V.5h-11.65V-50.525h23.9c5.165,0,9.543,1.632,12.661,4.72a15.1,15.1,0,0,1,3.446,5.28A18.139,18.139,0,0,1-603.25-33.9a18.065,18.065,0,0,1-.98,6.042,14.563,14.563,0,0,1-2.587,4.546,14.586,14.586,0,0,1-7.115,4.579Zm-12.806-1h11.054l-11.15-18.881.661-.156a13.592,13.592,0,0,0,7.233-4.42,13.567,13.567,0,0,0,2.409-4.236,17.067,17.067,0,0,0,.923-5.708,17.142,17.142,0,0,0-1.125-6.261,14.108,14.108,0,0,0-3.218-4.934c-2.927-2.9-7.062-4.43-11.958-4.43h-22.9V-.5h9.65V-18.275h8.6ZM-776.575.5h-11.65V-20.326l-19.7-30.2h13.351l.147.237,12.022,19.41,12.022-19.646h13.349l-19.544,30.2Zm-10.65-1h9.65V-20.623l18.706-28.9H-769.82L-782.4-28.971l-12.731-20.554h-10.948l18.852,28.9Zm-40.5,1h-13.4l-9.825-17.775h-7.005V.5H-869.6V-50.525h23.9c5.165,0,9.543,1.632,12.661,4.72a15.1,15.1,0,0,1,3.446,5.28A18.14,18.14,0,0,1-828.4-33.9a18.063,18.063,0,0,1-.98,6.042,14.563,14.563,0,0,1-2.587,4.546,14.586,14.586,0,0,1-7.115,4.579Zm-12.806-1h11.054l-11.15-18.881.661-.156a13.592,13.592,0,0,0,7.233-4.42,13.568,13.568,0,0,0,2.409-4.236A17.069,17.069,0,0,0-829.4-33.9a17.142,17.142,0,0,0-1.125-6.261,14.106,14.106,0,0,0-3.218-4.934c-2.927-2.9-7.062-4.43-11.958-4.43h-22.9V-.5h9.65V-18.275h8.6Zm-36.395,1h-36.4V-50.525h36.4V-40.15h-24.75v9.575h24.225V-20.2h-24.225V-9.875h24.75Zm-35.4-1h34.4V-8.875h-24.75V-21.2h24.225v-8.375h-24.225V-41.15h24.75v-8.375h-34.4ZM-933.7.5h-11.725V-40.15H-960.05V-50.525h40.9V-40.15H-933.7Zm-10.725-1h9.725V-41.15h14.55v-8.375h-38.9v8.375h14.625Zm-21.45,1H-976.9l-.15-.2L-1000-31.094V.5h-11.65V-50.525h11.7l.15.2,22.273,30.2v-30.4h11.65ZM-976.4-.5h9.521V-49.525h-9.65V-17.08l-23.928-32.445h-10.2V-.5h9.65V-34.156Zm-42.579,1h-36.4V-50.525h36.4V-40.15h-24.75v9.575h24.225V-20.2h-24.225V-9.875h24.75Zm-35.4-1h34.4V-8.875h-24.75V-21.2h24.225v-8.375h-24.225V-41.15h24.75v-8.375h-34.4ZM-146.25-8.05a15.966,15.966,0,0,1-6.46-1.3,14.322,14.322,0,0,1-4.947-3.591A17.915,17.915,0,0,1-161.9-24.975a20.019,20.019,0,0,1,1.1-6.688,15.927,15.927,0,0,1,3.145-5.374,14.264,14.264,0,0,1,4.948-3.573,16.063,16.063,0,0,1,6.459-1.29,16.143,16.143,0,0,1,6.47,1.289,14.382,14.382,0,0,1,4.973,3.572,15.943,15.943,0,0,1,3.171,5.374,19.842,19.842,0,0,1,1.111,6.69,17.842,17.842,0,0,1-4.282,12.035,14.44,14.44,0,0,1-4.972,3.59A16.046,16.046,0,0,1-146.25-8.05Zm0-32.85a15.071,15.071,0,0,0-6.059,1.206,13.27,13.27,0,0,0-4.6,3.325,14.933,14.933,0,0,0-2.946,5.039,19.026,19.026,0,0,0-1.041,6.355c0,9.376,6.024,15.925,14.65,15.925,8.67,0,14.725-6.549,14.725-15.925S-137.58-40.9-146.25-40.9ZM-432-8.05a15.966,15.966,0,0,1-6.46-1.3,14.322,14.322,0,0,1-4.947-3.591,17.915,17.915,0,0,1-4.243-12.033,20.019,20.019,0,0,1,1.1-6.688,15.928,15.928,0,0,1,3.145-5.374,14.264,14.264,0,0,1,4.948-3.573A16.063,16.063,0,0,1-432-41.9a16.143,16.143,0,0,1,6.47,1.289,14.382,14.382,0,0,1,4.973,3.572,15.943,15.943,0,0,1,3.171,5.374,19.843,19.843,0,0,1,1.111,6.69,17.841,17.841,0,0,1-4.282,12.035,14.44,14.44,0,0,1-4.972,3.59A16.046,16.046,0,0,1-432-8.05Zm0-32.85a15.071,15.071,0,0,0-6.059,1.206,13.27,13.27,0,0,0-4.6,3.325,14.933,14.933,0,0,0-2.946,5.039,19.026,19.026,0,0,0-1.041,6.355c0,9.376,6.024,15.925,14.65,15.925,8.67,0,14.725-6.549,14.725-15.925S-423.33-40.9-432-40.9ZM-732.6-8.05a15.965,15.965,0,0,1-6.46-1.3,14.322,14.322,0,0,1-4.947-3.591,17.916,17.916,0,0,1-4.243-12.033,20.019,20.019,0,0,1,1.1-6.688,15.927,15.927,0,0,1,3.145-5.374,14.263,14.263,0,0,1,4.948-3.573A16.062,16.062,0,0,1-732.6-41.9a16.144,16.144,0,0,1,6.47,1.289,14.382,14.382,0,0,1,4.973,3.572,15.943,15.943,0,0,1,3.171,5.374,19.843,19.843,0,0,1,1.111,6.69,17.842,17.842,0,0,1-4.282,12.035,14.44,14.44,0,0,1-4.972,3.59A16.047,16.047,0,0,1-732.6-8.05Zm0-32.85a15.071,15.071,0,0,0-6.059,1.206,13.27,13.27,0,0,0-4.6,3.325,14.934,14.934,0,0,0-2.946,5.039,19.025,19.025,0,0,0-1.041,6.355c0,9.376,6.024,15.925,14.65,15.925,8.67,0,14.725-6.549,14.725-15.925S-723.93-40.9-732.6-40.9Zm250.5,14.25h-11.675v-14.5H-482.1a8.624,8.624,0,0,1,5.681,1.922A6.819,6.819,0,0,1-474.1-33.9a6.819,6.819,0,0,1-2.319,5.328A8.624,8.624,0,0,1-482.1-26.65Zm-10.675-1H-482.1a7.631,7.631,0,0,0,5.026-1.678A5.848,5.848,0,0,0-475.1-33.9a5.848,5.848,0,0,0-1.974-4.572A7.631,7.631,0,0,0-482.1-40.15h-10.675Zm-129.35,1H-633.8v-14.5h11.675a8.624,8.624,0,0,1,5.681,1.922,6.819,6.819,0,0,1,2.319,5.328,6.819,6.819,0,0,1-2.319,5.328A8.624,8.624,0,0,1-622.125-26.65Zm-10.675-1h10.675a7.631,7.631,0,0,0,5.026-1.678,5.848,5.848,0,0,0,1.974-4.572,5.848,5.848,0,0,0-1.974-4.572,7.631,7.631,0,0,0-5.026-1.678H-632.8Zm-214.475,1H-858.95v-14.5h11.675a8.624,8.624,0,0,1,5.681,1.922,6.819,6.819,0,0,1,2.319,5.328,6.819,6.819,0,0,1-2.319,5.328A8.624,8.624,0,0,1-847.275-26.65Zm-10.675-1h10.675a7.631,7.631,0,0,0,5.026-1.678,5.848,5.848,0,0,0,1.974-4.572,5.848,5.848,0,0,0-1.974-4.572,7.631,7.631,0,0,0-5.026-1.678H-857.95Zm847.206-.895-5-4.094.664-.353A12.775,12.775,0,0,0-9.82-38.933a4.464,4.464,0,0,1-.679.058,5.629,5.629,0,0,1-5.6-5.9,6.513,6.513,0,0,1,1.887-4.588A6.233,6.233,0,0,1-9.75-51.275a6.935,6.935,0,0,1,5.058,2.151,8.463,8.463,0,0,1,2.192,6,16.12,16.12,0,0,1-2.213,8.1,20.241,20.241,0,0,1-5.719,6.26Zm-3.235-3.939,3.27,2.676a19.156,19.156,0,0,0,5.128-5.719,15.133,15.133,0,0,0,2.081-7.6,7.487,7.487,0,0,0-1.914-5.307A5.944,5.944,0,0,0-9.75-50.275a5.5,5.5,0,0,0-5.35,5.5,5.048,5.048,0,0,0,1.342,3.535A4.469,4.469,0,0,0-10.5-39.875a3.132,3.132,0,0,0,1.148-.216l1.036-.691-.271,1.215C-9.191-36.846-11.728-33.934-13.979-32.483Zm-557.9,3.733a6.935,6.935,0,0,1-5.058-2.151,8.463,8.463,0,0,1-2.192-6,15.965,15.965,0,0,1,2.224-8.088,19.605,19.605,0,0,1,5.791-6.2l.306-.212,5.01,4.008-.672.357a13.178,13.178,0,0,0-5.337,5.994c.3-.03.58-.036.753-.036a5.48,5.48,0,0,1,3.978,1.642,6.046,6.046,0,0,1,1.622,4.258,6.371,6.371,0,0,1-1.9,4.525A6.371,6.371,0,0,1-571.875-28.75Zm1.031-21.4a18.526,18.526,0,0,0-5.193,5.663,14.977,14.977,0,0,0-2.089,7.587,7.487,7.487,0,0,0,1.914,5.307,5.944,5.944,0,0,0,4.336,1.843,5.5,5.5,0,0,0,5.425-5.425,4.6,4.6,0,0,0-4.6-4.9,3.889,3.889,0,0,0-1.227.144l-1.072.714.314-1.255c.682-2.727,3.232-5.626,5.457-7.065Z" transform="translate(307 4312.5)" fill="#a2a2a2" style="mix-blend-mode: hard-light;isolation: isolate"/>
    </g>
  </g>
</svg>
