<svg xmlns="http://www.w3.org/2000/svg" width="118.7" height="24.021" viewBox="0 0 118.7 24.021">
  <g id="logo-kreatinc-footer" transform="translate(1176.835 -157.397)" opacity="0.6">
    <path id="Path_3" data-name="Path 3" d="M651.956,89.3l-4.269,20.054h-5.565l4.27-20.054Zm8.347,2.024q-1.322,1.033-3.856,3.21l-1.405,1.24-.551.468,5.619,7.8-1.377,6.474h-.275l-8.127-11.433,4.352-3.746a28.988,28.988,0,0,0,3.444-3.36A15.279,15.279,0,0,0,659.89,89.3h3.361l-.028.056a26.554,26.554,0,0,0-2.92,1.969" transform="translate(-1818.957 70.903)" fill="#fff"/>
    <path id="Path_4" data-name="Path 4" d="M707.6,102.238l-2.066,3.856a2.211,2.211,0,0,0-1.377-.441,1.982,1.982,0,0,0-1.529.73,10.478,10.478,0,0,0-1.473,3.25,79.7,79.7,0,0,0-1.929,7.755h-5.179l3.058-14.352,5.289-1.129h.11l-1.158,5.482h.138a12.142,12.142,0,0,1,2.218-4.036,3.662,3.662,0,0,1,2.741-1.281,4.834,4.834,0,0,1,1.157.165" transform="translate(-1852.04 62.873)" fill="#fff"/>
    <path id="Path_5" data-name="Path 5" d="M737.628,115.489a8.072,8.072,0,0,0,2.4-1.721l.276.192q-3.333,4.05-7.41,4.049a5.684,5.684,0,0,1-4.284-1.666,6.36,6.36,0,0,1-1.612-4.614,9.491,9.491,0,0,1,1.185-4.656,9.028,9.028,0,0,1,8.072-4.71,6.925,6.925,0,0,1,3.719.881,2.685,2.685,0,0,1,1.4,2.369q0,1.874-2.313,3.305a20.146,20.146,0,0,1-6.777,2.259v.606a5.355,5.355,0,0,0,.771,3.251,2.688,2.688,0,0,0,2.259.991,5.707,5.707,0,0,0,2.314-.537m-3.264-11.473a9.249,9.249,0,0,0-1.4,3.044,18.9,18.9,0,0,0-.647,3.677,8.068,8.068,0,0,0,3.967-2.41,5.619,5.619,0,0,0,1.432-3.761,2.162,2.162,0,0,0-.33-1.377,1.136,1.136,0,0,0-.909-.386,2.586,2.586,0,0,0-2.108,1.213" transform="translate(-1873.032 62.583)" fill="#fff"/>
    <path id="Path_6" data-name="Path 6" d="M782.512,115.708a.819.819,0,0,0,.234.647,1.288,1.288,0,0,0,.84.207,3.511,3.511,0,0,0,.551-.055l-.027.165a7.674,7.674,0,0,1-1.6.689,7.27,7.27,0,0,1-2.314.358,3.247,3.247,0,0,1-2.108-.565,2.081,2.081,0,0,1-.675-1.694,5.561,5.561,0,0,1,.165-1.3l.386-1.763h-.221a10.782,10.782,0,0,1-2.63,4.118,4.842,4.842,0,0,1-3.209,1.2,3.429,3.429,0,0,1-3.058-1.377,6.465,6.465,0,0,1-.936-3.692,11.592,11.592,0,0,1,1.212-5.261,9.908,9.908,0,0,1,3.361-3.87,8.44,8.44,0,0,1,4.821-1.446,7.929,7.929,0,0,1,2.6.413,6.443,6.443,0,0,1,2.079,1.156l3.278-1.735h.11L782.7,114.468a6.386,6.386,0,0,0-.193,1.24m-5.675-2.534a31.112,31.112,0,0,0,2.644-7.906A3.358,3.358,0,0,0,779,103.34a1.621,1.621,0,0,0-1.447-.8,2.884,2.884,0,0,0-2.355,1.584,12.768,12.768,0,0,0-1.611,3.9,17.976,17.976,0,0,0-.578,4.353q0,2.975,1.4,2.974,1.129,0,2.424-2.176" transform="translate(-1899.101 62.873)" fill="#fff"/>
    <path id="Path_7" data-name="Path 7" d="M823.933,105.363a4.55,4.55,0,0,0-.138.937.816.816,0,0,0,.909.937q1.019,0,2.893-1.873l.3.275q-2.976,3.472-5.675,3.471a3.788,3.788,0,0,1-2.713-.8,2.8,2.8,0,0,1-.813-2.093,4.979,4.979,0,0,1,.11-1.13L821.068,94.4h-1.542l.083-.468,1.6-.138,6.226-5.4h.11l-1.157,5.4h3.554l-.469.606h-3.223Z" transform="translate(-1931.459 71.483)" fill="#fff"/>
    <path id="Path_8" data-name="Path 8" d="M848.022,90.073l5.289-1.129h.11l-3.278,15.481h-5.179Zm.634-5.647,3.636-2.866,2.534,3.306-3.636,2.864Z" transform="translate(-1948.194 75.837)" fill="#fff"/>
    <path id="Path_9" data-name="Path 9" d="M882.949,102.94a3.418,3.418,0,0,1,.937,2.63,9.028,9.028,0,0,1-.22,1.818l-2.122,10h-5.179l2.2-10.3a7.361,7.361,0,0,0,.193-1.433,1.484,1.484,0,0,0-.234-.9.913.913,0,0,0-.785-.317,2.119,2.119,0,0,0-1.46.826,12.316,12.316,0,0,0-1.818,3.691,66.588,66.588,0,0,0-2.231,8.43h-5.179l3.058-14.352,5.289-1.129h.11l-1.157,5.482h.22a10.6,10.6,0,0,1,2.507-4.147,4.686,4.686,0,0,1,3.168-1.17,3.828,3.828,0,0,1,2.7.868" transform="translate(-1962.267 62.873)" fill="#fff"/>
    <path id="Path_10" data-name="Path 10" d="M919.486,117.265a5.4,5.4,0,0,1-2.148-2.135,6.477,6.477,0,0,1-.785-3.237,9.6,9.6,0,0,1,1.226-4.738,9.5,9.5,0,0,1,3.292-3.5,8.3,8.3,0,0,1,4.49-1.295,6.07,6.07,0,0,1,3.278.812A6.509,6.509,0,0,1,930.9,105.2l-1.735,1.322a12.126,12.126,0,0,0-1.212-2.8,1.931,1.931,0,0,0-1.708-.923,2.748,2.748,0,0,0-2.273,1.557,12.389,12.389,0,0,0-1.5,3.8,18.37,18.37,0,0,0-.523,4.146,4.271,4.271,0,0,0,.771,2.824,2.717,2.717,0,0,0,2.176.895,4.95,4.95,0,0,0,2-.427,6.36,6.36,0,0,0,2-1.5l.3.221a12.366,12.366,0,0,1-3.14,2.74,6.767,6.767,0,0,1-3.471.95,6.368,6.368,0,0,1-3.1-.744" transform="translate(-1993.804 62.583)" fill="#fff"/>
    <path id="Path_11" data-name="Path 11" d="M952.231,132.252l3.636-2.866,2.534,3.306-3.636,2.864Z" transform="translate(-2016.536 45.365)" fill="#fff"/>
  </g>
</svg>
