<svg id="upload-icon" xmlns="http://www.w3.org/2000/svg" xmlns:xlink="http://www.w3.org/1999/xlink" width="19.196" height="24.388" viewBox="0 0 19.196 24.388">
  <defs>
    <clipPath id="clip-path">
      <rect id="Rectangle_65" data-name="Rectangle 65" width="19.196" height="24.388" fill="#fff"/>
    </clipPath>
  </defs>
  <g id="Group_182" data-name="Group 182" clip-path="url(#clip-path)">
    <path id="Path_102" data-name="Path 102" d="M0,12.2Q0,7.49,0,2.783A2.62,2.62,0,0,1,2.78,0c3.4,0,6.8.006,10.193,0a2.807,2.807,0,0,1,2.3,1.079q1.6,1.944,3.225,3.868a2.867,2.867,0,0,1,.7,1.921q-.008,7.386,0,14.772a2.615,2.615,0,0,1-2.757,2.747q-6.841,0-13.681,0A2.618,2.618,0,0,1,0,21.637q0-4.72,0-9.44M12.214,1.746H2.781c-.71,0-1.036.323-1.036,1.027q0,9.429,0,18.857a.9.9,0,0,0,1.021,1.016H16.424a.894.894,0,0,0,1.024-1.013q0-7.184,0-14.368V6.971H14.98A2.622,2.622,0,0,1,12.214,4.2c0-.806,0-1.613,0-2.458m4.238,3.481L13.966,2.242c0,.8-.02,1.517.008,2.235a.822.822,0,0,0,.806.746c.533.015,1.067,0,1.673,0" transform="translate(0 0)" fill="#fff"/>
    <path id="Path_103" data-name="Path 103" d="M77.207,98.764v.479q0,3.02,0,6.04a.87.87,0,0,1-1.2.866.883.883,0,0,1-.545-.891q.007-3.074,0-6.149v-.348c-.1.087-.163.14-.223.2-.591.59-1.177,1.185-1.773,1.77a.871.871,0,0,1-1.422-.955,1.1,1.1,0,0,1,.22-.306q1.7-1.707,3.41-3.406a.863.863,0,0,1,1.322,0q1.709,1.7,3.411,3.405a.865.865,0,0,1,.039,1.262.874.874,0,0,1-1.284-.038c-.64-.629-1.277-1.261-1.955-1.931" transform="translate(-66.738 -88.797)" fill="#fff"/>
  </g>
</svg>
